<?xml version="1.0" encoding="utf-8"?>
<!-- Generator: Adobe Illustrator 24.0.2, SVG Export Plug-In . SVG Version: 6.00 Build 0)  -->
<svg version="1.1" id="Capa_1" xmlns="http://www.w3.org/2000/svg" xmlns:xlink="http://www.w3.org/1999/xlink" x="0px" y="0px"
	 viewBox="0 0 110 121.8" style="enable-background:new 0 0 110 121.8;" xml:space="preserve">
<style type="text/css">
	.st0{fill:#EBD776;}
</style>
<path class="st0" d="M29.5,42.8h43.3c0.8,0,1.5-0.7,1.5-1.5s-0.7-1.5-1.5-1.5H29.5c-0.8,0-1.5,0.7-1.5,1.5S28.6,42.8,29.5,42.8z"/>
<path class="st0" d="M74.2,49.9c0-0.8-0.7-1.5-1.5-1.5H29.5c-0.8,0-1.5,0.7-1.5,1.5s0.7,1.5,1.5,1.5h43.3
	C73.6,51.4,74.2,50.7,74.2,49.9z"/>
<path class="st0" d="M21.3,74.1H68l0.4,1.7c0.1,0.4,0.4,0.8,0.8,1l0.6,0.3l-4.8,11.6c-0.2,0.5-0.1,1.1,0.3,1.6
	c0.4,0.4,1,0.6,1.5,0.4l4.8-1.3l2.5,4.3c0.3,0.5,0.8,0.8,1.3,0.8h0.1c0.6,0,1.1-0.4,1.3-0.9l3.1-7.6l3.1,7.6
	c0.2,0.5,0.7,0.9,1.3,0.9h0.1c0.5,0,1-0.3,1.3-0.8l2.4-4.3l4.8,1.3c0.6,0.2,1.1,0,1.5-0.4c0.4-0.4,0.5-1,0.3-1.6L90.1,77l0.6-0.3
	c0.4-0.2,0.7-0.6,0.8-1l0.5-1.9l1.4-1.4c0.3-0.3,0.5-0.8,0.4-1.2l-0.2-1.9l0.8-1.8c0.2-0.4,0.2-0.9,0-1.3l-0.8-1.8l0.2-1.9
	c0-0.5-0.1-0.9-0.4-1.2L92.1,60l-0.5-1.9c-0.1-0.4-0.4-0.8-0.8-1l-1.8-0.8l-1.1-1.6c-0.2-0.2-0.4-0.4-0.7-0.5V32
	c0-3.5-2.8-6.3-6.3-6.3l-59.6,0c-3.5,0-6.3,2.8-6.3,6.3v35.8C15,71.2,17.8,74.1,21.3,74.1L21.3,74.1z M29.5,56.9
	c-0.8,0-1.5,0.7-1.5,1.5s0.7,1.5,1.5,1.5H68v0.1l-1.4,1.4c-0.3,0.3-0.5,0.8-0.4,1.2l0.2,1.9l-0.4,0.9H26.4c-0.4-1.3-1.5-2.3-2.8-2.8
	V37.1c1.3-0.5,2.3-1.5,2.8-2.8h49.3c0.5,1.3,1.5,2.3,2.8,2.8v15.5l-0.4-0.1c-0.4-0.1-0.9,0-1.3,0.2l-1.6,1.1L73.3,54
	c-0.5,0-0.9,0.3-1.1,0.6l-1.1,1.6l-1.4,0.6L29.5,56.9z M75.3,89.4l-1.5-2.7C73.5,86.3,73,86,72.5,86c-0.1,0-0.3,0-0.4,0.1l-3,0.8
	l3.2-7.6c0.3,0.3,0.6,0.5,1.1,0.6l1.9,0.2l1.6,1.1c0.4,0.3,0.8,0.4,1.3,0.2l0.6-0.2L75.3,89.4L75.3,89.4z M90.9,86.9l-3-0.8
	c-0.7-0.2-1.4,0.1-1.7,0.7l-1.5,2.7l-3.1-7.5l0.3-0.6c0.1,0,0.3,0.1,0.4,0.1c0.3,0,0.6-0.1,0.9-0.3l1.6-1.1l1.9-0.2
	c0.4,0,0.8-0.2,1-0.6L90.9,86.9L90.9,86.9z M85.8,56.9l0.9,1.4c0.1,0.2,0.4,0.4,0.6,0.5l1.5,0.7l0.4,1.6c0.1,0.3,0.2,0.5,0.4,0.7
	l1.2,1.2l-0.2,1.6c0,0.3,0,0.5,0.1,0.8l0.7,1.5l-0.7,1.5c-0.1,0.2-0.2,0.5-0.1,0.8l0.2,1.6L89.7,72c-0.2,0.2-0.3,0.4-0.4,0.7
	l-0.4,1.6L87.3,75c-0.3,0.1-0.5,0.3-0.6,0.5l-0.9,1.4L84.1,77c-0.3,0-0.5,0.1-0.8,0.3l-1.4,1l-1.6-0.4c-0.3-0.1-0.6-0.1-0.8,0
	L78,78.2l-1.4-1c-0.2-0.2-0.5-0.3-0.8-0.3l-1.6-0.1l-0.9-1.4c-0.2-0.2-0.4-0.4-0.6-0.5l-1.5-0.7l-0.4-1.6c-0.1-0.3-0.2-0.5-0.4-0.7
	l-1.2-1.2l0.2-1.6c0-0.3,0-0.6-0.1-0.8l-0.7-1.5l0.7-1.5c0.1-0.3,0.2-0.5,0.1-0.8L69.2,63l1.2-1.2c0.2-0.2,0.3-0.4,0.4-0.7l0.4-1.6
	l1.5-0.7c0.3-0.1,0.5-0.3,0.6-0.5l0.9-1.4l1.6-0.1c0.3,0,0.5-0.1,0.8-0.3l1.4-1l1.6,0.4c0.3,0.1,0.5,0.1,0.8,0l1.6-0.4l1.4,1
	c0.2,0.2,0.5,0.3,0.8,0.3L85.8,56.9z M18,31.9c0-1.8,1.5-3.3,3.3-3.3h59.6c1.8,0,3.3,1.5,3.3,3.3v21.5l-1-0.7
	c-0.4-0.3-0.8-0.4-1.3-0.2l-0.4,0.1V35.8c0-0.8-0.7-1.5-1.5-1.5s-1.5-0.7-1.5-1.5c0-0.9-0.7-1.5-1.5-1.5l-51.8,0
	c-0.8,0-1.5,0.7-1.5,1.5c0,0.8-0.7,1.5-1.6,1.5c-0.9,0-1.5,0.7-1.5,1.5v28c0,0.8,0.7,1.5,1.5,1.5s1.6,0.7,1.6,1.5
	c0,0.9,0.7,1.5,1.5,1.5h40.7l0.4,0.9l-0.2,1.8H21.3c-1.8,0-3.3-1.5-3.3-3.3L18,31.9z"/>
<path class="st0" d="M71.5,66.9c0,4.7,3.8,8.5,8.5,8.5s8.5-3.8,8.5-8.5s-3.8-8.5-8.5-8.5C75.3,58.4,71.5,62.2,71.5,66.9z M85.5,66.9
	c0,3-2.5,5.5-5.5,5.5c-3,0-5.5-2.5-5.5-5.5c0-3,2.5-5.5,5.5-5.5S85.5,63.9,85.5,66.9z"/>
</svg>
