<?xml version="1.0" encoding="utf-8"?>
<!-- Generator: Adobe Illustrator 24.0.2, SVG Export Plug-In . SVG Version: 6.00 Build 0)  -->
<svg version="1.1" id="Capa_1" xmlns="http://www.w3.org/2000/svg" xmlns:xlink="http://www.w3.org/1999/xlink" x="0px" y="0px"
	 viewBox="0 0 110 126.9" style="enable-background:new 0 0 110 126.9;" xml:space="preserve">
<style type="text/css">
	.st0{fill:#EBD776;}
</style>
<path class="st0" d="M85.5,52.8c3.6,0,6.6-3,6.6-6.6s-3-6.6-6.6-6.6s-6.6,3-6.6,6.6S81.9,52.8,85.5,52.8z M85.5,41.5
	c2.6,0,4.7,2.1,4.7,4.7c0,2.6-2.1,4.7-4.7,4.7c-2.6,0-4.7-2.1-4.7-4.7C80.8,43.6,82.9,41.5,85.5,41.5z M24.5,52.8
	c3.6,0,6.6-3,6.6-6.6s-3-6.6-6.6-6.6s-6.6,3-6.6,6.6C17.9,49.8,20.8,52.8,24.5,52.8z M24.5,41.5c2.6,0,4.7,2.1,4.7,4.7
	c0,2.6-2.1,4.7-4.7,4.7c-2.6,0-4.7-2.1-4.7-4.7C19.8,43.6,21.9,41.5,24.5,41.5z M101,62c0-2.2-1.8-4-4-4c-0.8,0-1.6,0.3-2.3,0.7
	c-0.7-3.1-3.4-5.3-6.7-5.3h-5c-1.7,0-3.1,0.6-4.3,1.8l-6,6h-8.5c-2.4,0-4.4,1.9-4.4,4.4c0,0.9,0.3,1.8,0.8,2.5l-11.3,0
	c0.5-0.7,0.8-1.6,0.8-2.5c0-2.4-1.9-4.4-4.4-4.4h-8.5l-6-6c-1.2-1.2-2.6-1.8-4.3-1.8h-5c-3.3,0-6,2.3-6.7,5.3
	c-0.6-0.5-1.4-0.7-2.3-0.7c-2.2,0-4,1.8-4,4v16.4c0,3.4,1.4,6.6,3.6,8.9l-3.5,12.9c-0.2,0.8-0.1,1.6,0.3,2.3
	c0.4,0.7,1.1,1.2,1.9,1.4c0.3,0.1,0.5,0.1,0.8,0.1c0.5,0,1.1-0.1,1.5-0.4c0.7-0.4,1.2-1.1,1.4-1.9l3-11.1c1.2,0.4,2.5,0.6,3.9,0.6
	h2.9l2.8,10.5c0.2,0.8,0.7,1.4,1.4,1.9c0.5,0.3,1,0.4,1.5,0.4c0.3,0,0.5,0,0.8-0.1c0.8-0.2,1.4-0.7,1.9-1.4c0.4-0.7,0.5-1.5,0.3-2.3
	l-2.4-9c2-0.2,3.6-1.9,3.6-3.9c0-0.8-0.2-1.5-0.6-2.1H36v14.1c0,2.6,2.1,4.8,4.8,4.8s4.8-2.1,4.8-4.8l0-18.9c0-2.6-2.1-4.8-4.8-4.8
	H31c-0.5,0-0.9-0.4-0.9-0.9v-8.5l2.4,2.4c0.8,0.8,1.9,1.3,3.1,1.3H38c0,0.2-0.1,0.4-0.1,0.6v1.3c0,1.4,1.1,2.4,2.4,2.4H51V98h-1.2
	c-1.4,0-2.4,1.1-2.4,2.4v1.3c0,1.4,1.1,2.4,2.4,2.4h10.4c1.4,0,2.4-1.1,2.4-2.4v-1.3c0-1.4-1.1-2.4-2.4-2.4H59V74.2h10.6
	c1.4,0,2.4-1.1,2.4-2.4v-1.3c0-0.2,0-0.4-0.1-0.6h2.6c1.2,0,2.3-0.4,3.1-1.3l2.4-2.4v8.5c0,0.5-0.4,0.9-0.9,0.9h-9.8
	c-2.6,0-4.8,2.1-4.8,4.8v18.9c0,2.6,2.1,4.8,4.8,4.8S74,102,74,99.3V85.3h1.9c-0.4,0.6-0.6,1.3-0.6,2.1c0,2.1,1.6,3.8,3.6,3.9
	l-2.4,9c-0.2,0.8-0.1,1.6,0.3,2.3c0.4,0.7,1.1,1.2,1.9,1.4c0.3,0.1,0.5,0.1,0.8,0.1c0.5,0,1.1-0.1,1.5-0.4c0.7-0.4,1.2-1.1,1.4-1.9
	l2.8-10.5h2.9c1.3,0,2.6-0.2,3.9-0.6l3,11.1c0.2,0.8,0.7,1.4,1.4,1.9c0.5,0.3,1,0.4,1.5,0.4c0.3,0,0.5,0,0.8-0.1
	c0.8-0.2,1.4-0.7,1.9-1.4c0.4-0.7,0.5-1.5,0.3-2.3l-3.5-12.9c2.2-2.3,3.6-5.4,3.6-8.9L101,62z M13.2,101.4c-0.1,0.3-0.3,0.6-0.6,0.7
	c-0.3,0.2-0.6,0.2-0.9,0.1c-0.3-0.1-0.6-0.3-0.7-0.6c-0.2-0.3-0.2-0.6-0.1-0.9l3.2-12c0.7,0.5,1.4,0.9,2.1,1.3L13.2,101.4z
	 M31.6,101.6c-0.2,0.3-0.4,0.5-0.7,0.6c-0.3,0.1-0.6,0-0.9-0.1c-0.3-0.2-0.5-0.4-0.6-0.7l-2.7-10.1h2.5l2.5,9.4
	C31.8,101.1,31.8,101.4,31.6,101.6L31.6,101.6z M32.9,87.4c0,1.1-0.9,2.1-2.1,2.1h-8.9c-6.1,0-11-4.9-11-11V62
	c0-1.1,0.9-2.1,2.1-2.1c1.1,0,2.1,0.9,2.1,2.1v15.5c0,4.3,3.5,7.8,7.7,7.8h8C32,85.3,32.9,86.2,32.9,87.4L32.9,87.4z M33.7,67.3
	l-5.5-5.5c-0.4-0.4-1-0.4-1.3,0c-0.4,0.4-0.4,1,0,1.3l1.2,1.2v10.3c0,1.6,1.3,2.8,2.8,2.8h9.8c1.6,0,2.9,1.3,2.9,2.9v18.9
	c0,1.6-1.3,2.9-2.9,2.9c-1.6,0-2.9-1.3-2.9-2.9v-15c0-0.5-0.4-0.9-0.9-0.9H22.8c-3.2,0-5.9-2.6-5.9-5.9V60.4c0-2.8,2.3-5,5-5h5
	c1.2,0,2.1,0.4,2.9,1.2l6.3,6.3c0.2,0.2,0.4,0.3,0.7,0.3h8.9c1.4,0,2.5,1.1,2.5,2.5c0,1.3-1.1,2.4-2.4,2.5H35.5
	C34.8,68.1,34.2,67.8,33.7,67.3L33.7,67.3z M60.8,100.4v1.3c0,0.3-0.3,0.6-0.6,0.6l-10.4,0c-0.3,0-0.6-0.3-0.6-0.6v-1.3
	c0-0.3,0.3-0.6,0.6-0.6h10.4C60.5,99.9,60.8,100.1,60.8,100.4L60.8,100.4z M57.1,98h-4.2V74.2h4.2L57.1,98L57.1,98z M70.1,70.5v1.3
	c0,0.3-0.3,0.6-0.6,0.6H40.4c-0.3,0-0.6-0.3-0.6-0.6v-1.3c0-0.3,0.3-0.6,0.6-0.6h29.2C69.9,69.9,70.1,70.2,70.1,70.5z M73.1,83.4
	c-0.5,0-0.9,0.4-0.9,0.9v15c0,1.6-1.3,2.9-2.9,2.9c-1.6,0-2.9-1.3-2.9-2.9l0-18.9c0-1.6,1.3-2.9,2.9-2.9H79c1.6,0,2.8-1.3,2.8-2.8
	l0-10.3l1.2-1.2c0.4-0.4,0.4-1,0-1.3c-0.4-0.4-1-0.4-1.3,0l-5.5,5.5c-0.5,0.5-1.1,0.7-1.8,0.7l-10.3,0c-1.3,0-2.4-1.1-2.4-2.5
	c0-1.4,1.1-2.5,2.5-2.5h8.9c0.3,0,0.5-0.1,0.7-0.3l6.3-6.3c0.8-0.8,1.8-1.2,2.9-1.2h5c2.8,0,5,2.3,5,5v17.1c0,3.2-2.6,5.9-5.9,5.9
	L73.1,83.4L73.1,83.4z M80.6,101.4c-0.1,0.3-0.3,0.6-0.6,0.7c-0.3,0.2-0.6,0.2-0.9,0.1c-0.3-0.1-0.6-0.3-0.7-0.6
	c-0.2-0.3-0.2-0.6-0.1-0.9l2.5-9.4h2.5L80.6,101.4z M99,101.6c-0.2,0.3-0.4,0.5-0.7,0.6c-0.3,0.1-0.6,0-0.9-0.1
	c-0.3-0.2-0.5-0.4-0.6-0.7l-3-11.4c0.8-0.4,1.5-0.8,2.1-1.3l3.2,12C99.2,101,99.1,101.4,99,101.6L99,101.6z M99.1,78.4
	c0,6.1-4.9,11-11,11h-8.9c-1.1,0-2.1-0.9-2.1-2.1c0-1.1,0.9-2.1,2.1-2.1h8c4.3,0,7.8-3.5,7.8-7.8V62c0-1.1,0.9-2.1,2.1-2.1
	c1.1,0,2.1,0.9,2.1,2.1L99.1,78.4z M37.1,39.8H39v4.4c0,1.1,0.7,2.2,1.8,2.6c0.3,0.1,0.7,0.2,1,0.2c0.8,0,1.5-0.3,2-0.9l1.6-1.7
	h12.1l6,6.3c0.5,0.6,1.3,0.9,2,0.9c0.4,0,0.7-0.1,1-0.2c1.1-0.4,1.8-1.4,1.8-2.6v-4.4h1.9c2.4,0,4.4-2,4.4-4.4l0-15.1
	c0-2.4-2-4.4-4.4-4.4h-2.4v-0.2c0-2.4-2-4.4-4.4-4.4l-26.4,0c-2.4,0-4.4,2-4.4,4.4v15.1C32.7,37.8,34.7,39.8,37.1,39.8L37.1,39.8z
	 M68,35.4v-13h2.4c1.4,0,2.6,1.1,2.6,2.6v15.1c0,1.4-1.1,2.6-2.6,2.6h-2.8c-0.5,0-0.9,0.4-0.9,0.9v5.4c0,0.4-0.2,0.7-0.6,0.9
	c-0.4,0.1-0.7,0.1-1-0.2l-6.3-6.6c-0.2-0.2-0.4-0.3-0.7-0.3l-10.7,0l2.6-2.8h13.6C66,39.8,68,37.8,68,35.4L68,35.4z M34.6,20.3
	c0-1.4,1.1-2.6,2.6-2.6h26.4c1.4,0,2.6,1.1,2.6,2.6l0,15.1c0,1.4-1.1,2.6-2.6,2.6h-14c-0.3,0-0.5,0.1-0.7,0.3l-6.3,6.6
	c-0.3,0.3-0.6,0.4-1,0.2c-0.4-0.1-0.6-0.5-0.6-0.9v-5.4c0-0.5-0.4-0.9-0.9-0.9h-2.8c-1.4,0-2.6-1.1-2.6-2.6L34.6,20.3z M40.4,30.7
	c0-0.5,0.4-0.9,0.9-0.9h11c0.5,0,0.9,0.4,0.9,0.9s-0.4,0.9-0.9,0.9h-11C40.8,31.7,40.4,31.3,40.4,30.7z M40.4,25
	c0-0.5,0.4-0.9,0.9-0.9h18c0.5,0,0.9,0.4,0.9,0.9s-0.4,0.9-0.9,0.9l-18,0C40.8,25.9,40.4,25.5,40.4,25L40.4,25z"/>
</svg>
