<?xml version="1.0" encoding="utf-8"?>
<!-- Generator: Adobe Illustrator 24.0.2, SVG Export Plug-In . SVG Version: 6.00 Build 0)  -->
<svg version="1.1" id="Capa_1" xmlns="http://www.w3.org/2000/svg" xmlns:xlink="http://www.w3.org/1999/xlink" x="0px" y="0px"
	 viewBox="0 0 110 124.5" style="enable-background:new 0 0 110 124.5;" xml:space="preserve">
<style type="text/css">
	.st0{fill-rule:evenodd;clip-rule:evenodd;fill:#EBD776;}
</style>
<path class="st0" d="M37,32.2l9,2c0.8,0.2,1.7-0.3,1.9-1.2c0.2-0.8-0.3-1.7-1.2-1.9l-9-2c0.1-0.6,0.1-1.3,0.1-1.9
	c0-8.6-7-15.6-15.6-15.6s-15.6,7-15.6,15.6s7,15.6,15.6,15.6C29.1,42.8,34.9,38.4,37,32.2L37,32.2z M22.2,14.7
	c6.9,0,12.5,5.6,12.5,12.5s-5.6,12.5-12.5,12.5S9.7,34.1,9.7,27.2S15.3,14.7,22.2,14.7z M16.1,35h12.5c0.9,0,1.6-0.7,1.6-1.6
	s-0.7-1.6-1.6-1.6H16.1c-0.9,0-1.6,0.7-1.6,1.6S15.2,35,16.1,35z M16.1,28.8h12.5c0.9,0,1.6-0.7,1.6-1.6s-0.7-1.6-1.6-1.6H16.1
	c-0.9,0-1.6,0.7-1.6,1.6S15.2,28.8,16.1,28.8z M16.1,22.5h12.5c0.9,0,1.6-0.7,1.6-1.6s-0.7-1.6-1.6-1.6H16.1c-0.9,0-1.6,0.7-1.6,1.6
	S15.2,22.5,16.1,22.5z"/>
<path class="st0" d="M37,59.6l11.6-6.1c0.8-0.4,1.1-1.3,0.7-2.1c-0.4-0.8-1.3-1.1-2.1-0.7l-11.4,6c-2.7-4.7-7.8-7.9-13.6-7.9
	c-8.6,0-15.6,7-15.6,15.6c0,8.6,7,15.6,15.6,15.6s15.6-7,15.6-15.6C37.8,62.8,37.5,61.1,37,59.6L37,59.6z M13,72.9l4.5-4.5l6,8.5
	C23,77,22.6,77,22.2,77C18.5,77,15.3,75.4,13,72.9L13,72.9z M22.6,70.3l5.9-6.6l5,6c-1.4,2.9-3.8,5.2-6.8,6.4L22.6,70.3z M34.6,66.1
	c0.1-0.5,0.1-1.1,0.1-1.6c0-6.9-5.6-12.5-12.5-12.5S9.7,57.6,9.7,64.5c0,2.1,0.5,4.1,1.5,5.9l5.4-5.4c0.3-0.3,0.8-0.5,1.2-0.5
	c0.5,0,0.9,0.3,1.1,0.7l1.8,2.6l6.7-7.4c0.3-0.3,0.7-0.5,1.2-0.5c0.5,0,0.9,0.2,1.2,0.6L34.6,66.1z M20.6,56.9
	c0.9,0,1.6,0.7,1.6,1.6S21.5,60,20.6,60s-1.6-0.7-1.6-1.6S19.8,56.9,20.6,56.9z"/>
<path class="st0" d="M55.3,78.1c-1.8-0.7-3.8-1.1-5.9-1.1c-8.6,0-15.6,7-15.6,15.6c0,8.6,7,15.6,15.6,15.6s15.6-7,15.6-15.6
	c0-5.4-2.8-10.2-7-13l13.8-26.7c0.4-0.8,0.1-1.7-0.7-2.1c-0.8-0.4-1.7-0.1-2.1,0.7L55.3,78.1z M49.4,80.1c6.9,0,12.5,5.6,12.5,12.5
	s-5.6,12.5-12.5,12.5s-12.5-5.6-12.5-12.5S42.5,80.1,49.4,80.1z M56.8,93.9c0.5-0.3,0.8-0.8,0.8-1.4s-0.3-1.1-0.8-1.4L46,85
	c-0.5-0.3-1.1-0.3-1.6,0s-0.8,0.8-0.8,1.4v12.5c0,0.6,0.3,1.1,0.8,1.4c0.5,0.3,1.1,0.3,1.6,0L56.8,93.9z M52.9,92.6l-6.1,3.5v-7.1
	L52.9,92.6z"/>
<path class="st0" d="M83,77.9c-6.3,2-10.8,7.9-10.8,14.9c0,8.6,7,15.6,15.6,15.6s15.6-7,15.6-15.6s-7-15.6-15.6-15.6
	c-0.6,0-1.2,0-1.7,0.1l-1.6-7.9c-0.2-0.8-1-1.4-1.8-1.2c-0.8,0.2-1.4,1-1.2,1.8L83,77.9z M87.8,80.3c6.9,0,12.5,5.6,12.5,12.5
	s-5.6,12.5-12.5,12.5s-12.5-5.6-12.5-12.5S80.9,80.3,87.8,80.3z M89.5,100.6v-1.6c1.2-0.1,2.4-0.6,3.2-1.5c0.9-0.9,1.5-2.2,1.5-3.5
	v-7.2c0-1.3-0.5-2.6-1.5-3.5s-2.2-1.5-3.5-1.5h-2.5c-1.3,0-2.6,0.5-3.5,1.5s-1.5,2.2-1.5,3.5v7.2c0,1.3,0.5,2.6,1.5,3.5
	c0.9,0.9,2,1.4,3.2,1.5v1.6h-1.6c-0.9,0-1.6,0.7-1.6,1.6s0.7,1.6,1.6,1.6h6.3c0.9,0,1.6-0.7,1.6-1.6s-0.7-1.6-1.6-1.6H89.5z
	 M91.1,94.4c-0.1,0.4-0.2,0.7-0.5,1c-0.4,0.4-0.8,0.5-1.3,0.5h-2.5c-0.5,0-1-0.2-1.3-0.5c-0.3-0.3-0.5-0.6-0.5-1H91.1z M84.8,89.7
	v1.6h6.3v-1.6H84.8z M91.1,86.6h-6.2c0.1-0.4,0.2-0.7,0.5-1c0.4-0.4,0.8-0.5,1.3-0.5h2.5c0.5,0,1,0.2,1.3,0.5
	C90.8,85.8,91,86.2,91.1,86.6L91.1,86.6z"/>
<path class="st0" d="M71.1,43.8c0.6,1.5,2.2,2.7,4.1,2.8h0l1.6,0l-0.2,12.3c-0.1,2.2,1.8,4.2,4.4,4.2c2.4,0,4.4-1.9,4.5-4.3
	l0.2-12.3l1.4,0c1.9,0,3.6-1.2,4.2-2.9l4.6-0.1c4.1,0,7.4-3.2,7.5-7c0.1-3.8-3.2-7-7.3-7l-4.6,0.1c-0.6-1.5-2.2-2.6-4.1-2.6
	l-11.8,0.1c-1.8,0-3.5,1.1-4.2,2.7l-1,0l-10.6-9.7c0,0,0,0,0,0c-2.4-2-6.2-0.4-6.2,2.6c0,0-0.2,28.7-0.2,28.7c-0.2,3,3.6,4.7,6,2.6
	c0,0,0,0,0,0l10.8-10.1L71.1,43.8z M82.6,46.5l-2.6,0l-0.2,12.4v0c0,0.6,0.6,1,1.3,1h0c0.7,0,1.3-0.5,1.3-1.2L82.6,46.5z M71,33
	l-1.3,0c-0.4,0-0.8-0.1-1.1-0.4c0,0-11-10.1-11-10.1c-0.2-0.2-0.5-0.2-0.7-0.1c-0.1,0-0.3,0.1-0.3,0.3l-0.2,28.8c0,0,0,0.1,0,0.1
	c0,0.2,0.2,0.2,0.4,0.2c0.1,0,0.3-0.1,0.4-0.2l11.3-10.5c0.3-0.3,0.7-0.4,1-0.4l1.3,0L71,33z M88.6,31.1c0-0.6-0.6-1-1.3-1
	l-11.9,0.1h0c-0.7,0-1.3,0.5-1.3,1.2L74,36.9c0,1.3,0,2.5-0.1,3.8l0,1c0.1,0.2,0.1,0.3,0.1,0.5c0,0.1,0,0.3,0,0.4
	c0.2,0.5,0.7,0.8,1.2,0.8l2.6,0c0.2-0.1,0.4-0.1,0.6-0.1c0.2,0,0.3,0,0.5,0.1l4.7-0.1c0.2-0.1,0.4-0.1,0.6-0.1c0.2,0,0.4,0,0.6,0.1
	l2.3,0h0c0.6,0,1.2-0.4,1.3-1c0-0.1,0-0.1,0-0.2c0-0.1,0-0.3,0-0.4L88.6,31.1C88.6,31.2,88.6,31.1,88.6,31.1L88.6,31.1z M91.7,32.7
	l-0.1,7.7l4.3-0.1c2.3,0,4.3-1.8,4.4-4c0.1-2.1-1.9-3.7-4.2-3.8L91.7,32.7z"/>
</svg>
