<?xml version="1.0" encoding="utf-8"?>
<!-- Generator: Adobe Illustrator 24.0.2, SVG Export Plug-In . SVG Version: 6.00 Build 0)  -->
<svg version="1.1" id="Capa_1" xmlns="http://www.w3.org/2000/svg" xmlns:xlink="http://www.w3.org/1999/xlink" x="0px" y="0px"
	 viewBox="0 0 110 123.8" style="enable-background:new 0 0 110 123.8;" xml:space="preserve">
<style type="text/css">
	.st0{fill-rule:evenodd;clip-rule:evenodd;fill:#EBD776;}
</style>
<path class="st0" d="M55.6,51.4c1,0,1.9-0.4,2.6-1.1c0.7-0.7,1.1-1.6,1.1-2.6h0c0-1-0.4-1.9-1.1-2.6c-0.7-0.7-1.6-1.1-2.6-1.1v0
	c-0.2,0-0.3,0-0.4,0c-0.1,0-0.3,0-0.4,0.1c-0.6,0.1-1.2,0.4-1.6,0.8c-0.5,0.4-0.8,0.9-1,1.5c-0.1,0.2-0.1,0.4-0.1,0.6
	c0,0.2,0,0.4,0,0.6c0,1,0.4,1.9,1.1,2.6C53.7,51,54.7,51.4,55.6,51.4L55.6,51.4z M43.1,77.2h25.2c0.8,0,1.6-0.3,2.2-0.9
	c0.6-0.6,0.9-1.3,0.9-2.2c0-0.8-0.3-1.6-0.9-2.2c-0.6-0.6-1.3-0.9-2.2-0.9H43.1c-0.8,0-1.6,0.3-2.2,0.9c-0.6,0.6-0.9,1.3-0.9,2.2
	c0,0.8,0.3,1.6,0.9,2.2C41.4,76.9,42.2,77.2,43.1,77.2z M41.4,80.2c-1.1-0.3-2-0.9-2.8-1.6c-1.1-1.1-1.8-2.7-1.8-4.4
	c0-1.7,0.7-3.3,1.8-4.4c0.7-0.7,1.5-1.2,2.4-1.5l-8.9-19.6c-0.2-0.5-0.2-1.1,0.1-1.6l22-34.2c0,0,0.1-0.1,0.1-0.1
	c0.2-0.6,0.8-1,1.5-1c0.9,0,1.6,0.7,1.6,1.6v0.2L79,47.1c0.3,0.5,0.3,1,0.1,1.5l-8.9,19.6c0.9,0.3,1.7,0.8,2.4,1.5
	c1.1,1.1,1.8,2.7,1.8,4.4c0,1.7-0.7,3.3-1.8,4.4c-0.8,0.8-1.7,1.3-2.8,1.6l6.4,28.7c0.2,0.9-0.4,1.7-1.2,1.9c-0.1,0-0.2,0-0.3,0v0
	l-38,0c-0.9,0-1.6-0.7-1.6-1.6c0-0.2,0-0.3,0.1-0.5L41.4,80.2z M54.2,18.9l-0.2,22.2c-1.1,0.3-2.1,0.8-2.9,1.5
	c-0.9,0.8-1.5,1.7-1.9,2.9c-0.1,0.4-0.2,0.7-0.3,1.1c-0.1,0.4-0.1,0.8-0.1,1.1c0,1.9,0.8,3.6,2,4.8c1.2,1.2,2.9,2,4.8,2v0
	c1.9,0,3.6-0.8,4.8-2c1.2-1.2,2-2.9,2-4.8h0c0-1.9-0.8-3.6-2-4.8c-0.9-0.9-2-1.5-3.2-1.8l0.2-21.7l18.5,28.7l-9,19.8l-22.5,0
	l-9-19.8L54.2,18.9z M66.7,80.4h-22l-6,27.3h34.1L66.7,80.4z"/>
</svg>
