<?xml version="1.0" encoding="utf-8"?>
<!-- Generator: Adobe Illustrator 24.0.2, SVG Export Plug-In . SVG Version: 6.00 Build 0)  -->
<svg version="1.1" id="Capa_1" xmlns="http://www.w3.org/2000/svg" xmlns:xlink="http://www.w3.org/1999/xlink" x="0px" y="0px"
	 viewBox="0 0 110 122.5" style="enable-background:new 0 0 110 122.5;" xml:space="preserve">
<style type="text/css">
	.st0{fill:#EBD776;}
</style>
<path class="st0" d="M79.2,110.6c1.6,0,3.1-0.6,4.2-1.8s1.8-2.6,1.8-4.2V17.8c0-1.6-0.6-3.1-1.8-4.2s-2.6-1.8-4.2-1.8H31.3
	c-3.3,0-6,2.7-6,6v86.8c0,1.6,0.6,3.1,1.8,4.2c1.1,1.1,2.6,1.8,4.2,1.8H79.2z M28.4,23.8h53.9v74.8H28.4V23.8z M31.3,14.8h47.9
	c0.8,0,1.6,0.3,2.1,0.9c0.6,0.6,0.9,1.3,0.9,2.1v3H28.4v-3C28.4,16.2,29.7,14.8,31.3,14.8L31.3,14.8z M28.4,104.6v-3h53.9v3
	c0,0.8-0.3,1.6-0.9,2.1c-0.6,0.6-1.3,0.9-2.1,0.9H31.3C29.7,107.6,28.4,106.3,28.4,104.6L28.4,104.6z"/>
<path class="st0" d="M50.8,106.1h9c0.8,0,1.5-0.7,1.5-1.5c0-0.8-0.7-1.5-1.5-1.5h-9c-0.8,0-1.5,0.7-1.5,1.5
	C49.3,105.5,50,106.1,50.8,106.1z"/>
<path class="st0" d="M74.8,55.2c0-0.1,0-0.1,0-0.2c0-0.1,0-0.1,0-0.2l-2.6-10.5c-0.4-1.6-1.8-2.7-3.4-2.7H41.9c-1.6,0-3,1.1-3.4,2.6
	l-2.6,10.5V55c0,0.1,0,0.1,0,0.2c0,2.8,1.5,5.3,4,6.6v15.4c0,1.9,1.6,3.5,3.5,3.5h23.9c1.9,0,3.5-1.6,3.5-3.5V61.8
	C73.2,60.5,74.7,58,74.8,55.2L74.8,55.2z M67.3,59.7L67.3,59.7c-1.9,0-3.6-1.2-4.2-3h8.4C70.9,58.5,69.2,59.7,67.3,59.7L67.3,59.7z
	 M39.1,56.7h8.4c-0.6,1.8-2.3,3-4.2,3C41.4,59.7,39.7,58.5,39.1,56.7z M41.4,45.1c0.1-0.2,0.3-0.4,0.5-0.4h26.8
	c0.2,0,0.4,0.2,0.5,0.4l2.1,8.6H39.3L41.4,45.1z M59.5,56.7c-0.6,1.8-2.3,3-4.2,3c-1.9,0-3.6-1.2-4.2-3H59.5z M51.8,77.7v-10h7v10
	H51.8z M67.8,77.2L67.8,77.2c0,0.3-0.2,0.5-0.5,0.5h-5.5V66.2c0-0.4-0.2-0.8-0.4-1.1c-0.3-0.3-0.7-0.4-1.1-0.4h-10
	c-0.8,0-1.5,0.7-1.5,1.5v11.5h-5.5c-0.3,0-0.5-0.2-0.5-0.5V62.7c0.2,0,0.3,0.1,0.5,0.1c2.4,0,4.6-1.1,6-3c1.4,1.9,3.6,3,6,3
	c2.4,0,4.6-1.1,6-3c1.4,1.9,3.6,3,6,3c0.2,0,0.3,0,0.5-0.1L67.8,77.2z"/>
</svg>
