<?xml version="1.0" encoding="utf-8"?>
<!-- Generator: Adobe Illustrator 24.0.2, SVG Export Plug-In . SVG Version: 6.00 Build 0)  -->
<svg version="1.1" id="Capa_1" xmlns="http://www.w3.org/2000/svg" xmlns:xlink="http://www.w3.org/1999/xlink" x="0px" y="0px"
	 viewBox="0 0 110 125.9" style="enable-background:new 0 0 110 125.9;" xml:space="preserve">
<style type="text/css">
	.st0{fill-rule:evenodd;clip-rule:evenodd;fill:#EBD776;}
</style>
<path class="st0" d="M55,21.6c-1.3,0-2.4,1.1-2.4,2.4s1.1,2.4,2.4,2.4s2.4-1.1,2.4-2.4S56.3,21.6,55,21.6z M55,28.4
	c-2.4,0-4.4-2-4.4-4.4s2-4.4,4.4-4.4c2.4,0,4.4,2,4.4,4.4S57.4,28.4,55,28.4z"/>
<path class="st0" d="M61.3,33.6c-0.5,0-0.9-0.4-1-0.8c-0.5-2.5-2.7-4.4-5.3-4.4s-4.8,1.8-5.3,4.4c-0.1,0.6-0.6,0.9-1.2,0.8
	c-0.6-0.1-0.9-0.6-0.8-1.2c0.6-3.5,3.7-6.1,7.3-6.1c3.6,0,6.7,2.6,7.3,6.1c0.1,0.6-0.3,1.1-0.8,1.2C61.4,33.6,61.3,33.6,61.3,33.6
	L61.3,33.6z"/>
<path class="st0" d="M55,17.2c-4.6,0-8.4,3.8-8.4,8.4c0,4.6,3.8,8.4,8.4,8.4s8.4-3.8,8.4-8.4C63.4,20.9,59.6,17.2,55,17.2z M55,36
	c-5.8,0-10.5-4.7-10.5-10.5S49.2,15.1,55,15.1c5.8,0,10.5,4.7,10.5,10.5C65.5,31.3,60.8,36,55,36z"/>
<path class="st0" d="M20.6,56c-1.3,0-2.4,1.1-2.4,2.4s1.1,2.4,2.4,2.4s2.4-1.1,2.4-2.4S21.9,56,20.6,56z M20.6,62.8
	c-2.4,0-4.4-2-4.4-4.4s2-4.4,4.4-4.4s4.4,2,4.4,4.4S23,62.8,20.6,62.8L20.6,62.8z"/>
<path class="st0" d="M14.3,68.1c-0.1,0-0.1,0-0.2,0c-0.6-0.1-0.9-0.6-0.8-1.2c0.6-3.5,3.7-6.1,7.3-6.1c3.6,0,6.7,2.6,7.3,6.1
	c0.1,0.6-0.3,1.1-0.8,1.2c-0.6,0.1-1.1-0.3-1.2-0.8c-0.5-2.5-2.7-4.4-5.3-4.4c-2.6,0-4.8,1.8-5.3,4.4C15.2,67.7,14.8,68.1,14.3,68.1
	L14.3,68.1z"/>
<path class="st0" d="M20.6,51.6c-4.6,0-8.4,3.8-8.4,8.4s3.8,8.4,8.4,8.4S29,64.6,29,60C29,55.4,25.2,51.6,20.6,51.6L20.6,51.6z
	 M20.6,70.5c-5.8,0-10.5-4.7-10.5-10.5c0-5.8,4.7-10.5,10.5-10.5C26.3,49.5,31,54.2,31,60S26.3,70.5,20.6,70.5z"/>
<path class="st0" d="M55,90.4c-1.3,0-2.4,1.1-2.4,2.4s1.1,2.4,2.4,2.4s2.4-1.1,2.4-2.4C57.4,91.5,56.3,90.4,55,90.4z M55,97.2
	c-2.4,0-4.4-2-4.4-4.4s2-4.4,4.4-4.4c2.4,0,4.4,2,4.4,4.4S57.4,97.2,55,97.2z"/>
<path class="st0" d="M61.3,102.5c-0.5,0-0.9-0.4-1-0.8c-0.5-2.5-2.7-4.4-5.3-4.4s-4.8,1.8-5.3,4.4c-0.1,0.6-0.6,0.9-1.2,0.8
	c-0.6-0.1-0.9-0.6-0.8-1.2c0.6-3.5,3.7-6.1,7.3-6.1c3.6,0,6.7,2.6,7.3,6.1c0.1,0.6-0.3,1.1-0.8,1.2
	C61.4,102.5,61.3,102.5,61.3,102.5L61.3,102.5z"/>
<path class="st0" d="M55,86c-4.6,0-8.4,3.8-8.4,8.4s3.8,8.4,8.4,8.4s8.4-3.8,8.4-8.4S59.6,86,55,86z M55,104.9
	c-5.8,0-10.5-4.7-10.5-10.5C44.5,88.7,49.2,84,55,84c5.8,0,10.5,4.7,10.5,10.5S60.8,104.9,55,104.9z"/>
<path class="st0" d="M89.4,56c-1.3,0-2.4,1.1-2.4,2.4s1.1,2.4,2.4,2.4s2.4-1.1,2.4-2.4S90.7,56,89.4,56z M89.4,62.8
	c-2.4,0-4.4-2-4.4-4.4s2-4.4,4.4-4.4c2.4,0,4.4,2,4.4,4.4S91.9,62.8,89.4,62.8z"/>
<path class="st0" d="M83.2,68.1c-0.1,0-0.1,0-0.2,0c-0.6-0.1-0.9-0.6-0.8-1.2c0.6-3.5,3.7-6.1,7.3-6.1c3.6,0,6.6,2.6,7.3,6.1
	c0.1,0.6-0.3,1.1-0.8,1.2c-0.6,0.1-1.1-0.3-1.2-0.8c-0.5-2.5-2.7-4.4-5.3-4.4c-2.6,0-4.8,1.8-5.3,4.4C84.1,67.7,83.6,68.1,83.2,68.1
	L83.2,68.1z"/>
<path class="st0" d="M89.4,51.6c-4.6,0-8.4,3.8-8.4,8.4s3.8,8.4,8.4,8.4c4.6,0,8.4-3.8,8.4-8.4C97.8,55.4,94.1,51.6,89.4,51.6z
	 M89.4,70.5C83.7,70.5,79,65.8,79,60c0-5.8,4.7-10.5,10.5-10.5c5.8,0,10.5,4.7,10.5,10.5S95.2,70.5,89.4,70.5z"/>
<path class="st0" d="M68.1,92.9c-0.4,0-0.8-0.2-1-0.6c-0.2-0.5,0-1.1,0.6-1.3c8.2-3.4,14.9-10,18.3-18.3c0.2-0.5,0.8-0.8,1.3-0.6
	c0.5,0.2,0.8,0.8,0.6,1.3c-3.6,8.7-10.6,15.8-19.4,19.4C68.3,92.9,68.2,92.9,68.1,92.9L68.1,92.9z"/>
<path class="st0" d="M86.9,48c-0.4,0-0.8-0.2-1-0.6c-3.4-8.2-10-14.9-18.3-18.3c-0.5-0.2-0.8-0.8-0.6-1.3c0.2-0.5,0.8-0.8,1.3-0.6
	c8.7,3.6,15.8,10.6,19.4,19.4c0.2,0.5,0,1.1-0.6,1.3C87.1,47.9,87,48,86.9,48L86.9,48z"/>
<path class="st0" d="M23.1,48c-0.1,0-0.3,0-0.4-0.1c-0.5-0.2-0.8-0.8-0.6-1.3c3.6-8.7,10.6-15.8,19.4-19.4c0.5-0.2,1.1,0,1.3,0.6
	c0.2,0.5,0,1.1-0.6,1.3c-8.2,3.4-14.9,10-18.3,18.3C23.9,47.7,23.5,48,23.1,48L23.1,48z"/>
<path class="st0" d="M41.9,92.9c-0.1,0-0.3,0-0.4-0.1c-8.7-3.6-15.8-10.6-19.4-19.4c-0.2-0.5,0-1.1,0.6-1.3c0.5-0.2,1.1,0,1.3,0.6
	c3.4,8.2,10,14.9,18.3,18.3c0.5,0.2,0.8,0.8,0.6,1.3C42.7,92.7,42.3,92.9,41.9,92.9L41.9,92.9z"/>
<path class="st0" d="M54.8,78.3c3.2,0.1,6.2-1.2,8.5-3.4c2.3-2.2,3.5-5.2,3.5-8.4V53.8h-4.3v12.7c0,2.1-0.8,4-2.3,5.4
	s-3.4,2.2-5.5,2.1c-4-0.1-7.3-3.6-7.3-7.7V53.8h-4.3v12.5C43.2,72.8,48.4,78.2,54.8,78.3L54.8,78.3z M55,80.4h-0.2
	c-7.5-0.1-13.7-6.4-13.7-14.1V53.5c0-1,0.8-1.7,1.7-1.7h4.9c1,0,1.7,0.8,1.7,1.7v12.9c0,3,2.4,5.6,5.3,5.6c1.5,0,2.9-0.5,4-1.6
	c1.1-1.1,1.7-2.5,1.7-4v-13c0-1,0.8-1.7,1.7-1.7h4.9c1,0,1.7,0.8,1.7,1.7v13c0,3.7-1.5,7.2-4.1,9.9C62.1,79,58.7,80.4,55,80.4
	L55,80.4z"/>
<path class="st0" d="M48.5,59.4h-6.3c-0.6,0-1-0.5-1-1c0-0.6,0.5-1,1-1h6.3c0.6,0,1,0.5,1,1C49.5,58.9,49,59.4,48.5,59.4z"/>
<path class="st0" d="M67.8,59.4h-6.3c-0.6,0-1-0.5-1-1c0-0.6,0.5-1,1-1h6.3c0.6,0,1,0.5,1,1C68.9,58.9,68.4,59.4,67.8,59.4z"/>
<path class="st0" d="M52.6,49.7L52.6,49.7L52.6,49.7z M52.6,47.7c0.4,0,0.8,0.2,1.1,0.4c0.3,0.3,0.5,0.7,0.5,1.1v3.5l4.3-5.1h-0.9
	c-0.9,0-1.6-0.7-1.6-1.6v-3.5l-4.4,5.2L52.6,47.7L52.6,47.7L52.6,47.7z M53.7,55.7c-0.2,0-0.4,0-0.5-0.1c-0.6-0.2-1-0.8-1-1.5v-4.4
	h-1.6c-0.6,0-1.2-0.3-1.4-0.9c-0.3-0.6-0.2-1.2,0.2-1.7l5.9-7c0.4-0.5,1.1-0.7,1.7-0.5c0.6,0.2,1,0.8,1,1.5v4.4h1.5
	c0.6,0,1.2,0.3,1.4,0.9c0.3,0.6,0.2,1.2-0.2,1.7l-5.8,7C54.6,55.5,54.2,55.7,53.7,55.7L53.7,55.7z"/>
</svg>
