<?xml version="1.0" encoding="utf-8"?>
<!-- Generator: Adobe Illustrator 24.0.2, SVG Export Plug-In . SVG Version: 6.00 Build 0)  -->
<svg version="1.1" id="Capa_1" xmlns="http://www.w3.org/2000/svg" xmlns:xlink="http://www.w3.org/1999/xlink" x="0px" y="0px"
	 viewBox="0 0 512 571" style="enable-background:new 0 0 512 571;" xml:space="preserve">
<style type="text/css">
	.st0{fill:#EBD776;}
</style>
<path class="st0" d="M342,497.6h-14.4V324.2c0-4-2.8-7.5-6.7-7.5h-30.7c-4,0-7.6,3.5-7.6,7.5v173.4h-16.2V353.7c0-4-2.9-7.3-6.9-7.3
	h-30.7c-4,0-7.5,3.3-7.5,7.3v143.9h-16.2V389.5c0-4-3-7-7-7h-30.7c-4,0-7.3,3.1-7.3,7v108.1H144V415c0-4-3.1-7.4-7.1-7.4h-30.7
	c-4,0-7.2,3.4-7.2,7.4v82.6H82.8v-55.2c0-4-3.3-6.9-7.2-6.9H44.9c-4,0-7.1,2.9-7.1,6.9v55.2H25.2c-4,0-7.2,3.2-7.2,7.2
	s3.2,7.2,7.2,7.2H342c4,0,7.2-3.2,7.2-7.2S346,497.6,342,497.6z"/>
<path class="st0" d="M434.8,102.4c1.8,0,3.7-0.7,5.1-2.1l16.4-16.4c2.8-2.8,2.8-7.4,0-10.2c-2.8-2.8-7.4-2.8-10.2,0l-16.4,16.4
	c-2.8,2.8-2.8,7.4,0,10.2C431.1,101.7,433,102.4,434.8,102.4z"/>
<path class="st0" d="M402.3,88.8c4,0,7.2-3.2,7.2-7.2V58.4c0-4-3.2-7.2-7.2-7.2s-7.2,3.2-7.2,7.2v23.2
	C395.1,85.6,398.3,88.8,402.3,88.8z"/>
<path class="st0" d="M471.5,120.5h-23.2c-4,0-7.2,3.2-7.2,7.2s3.2,7.2,7.2,7.2h23.2c4,0,7.2-3.2,7.2-7.2S475.5,120.5,471.5,120.5z"
	/>
<path class="st0" d="M398.2,113.8l14,14l7-7c3.9-3.9,3.9-10.1,0-14c-3.9-3.9-10.1-3.9-14,0L398.2,113.8z"/>
<path class="st0" d="M304.4,259.8L304.4,259.8c0.1-0.1,0.2-0.2,0.3-0.3c0.1-0.1,0.2-0.2,0.3-0.3l24.5-24.5l-38.2-38.2l-25.1,25.1
	c-10.5,10.5-10.5,27.6,0,38.2C276.7,270.3,293.9,270.3,304.4,259.8z"/>
<polygon class="st0" points="407.1,143.1 382.9,118.9 382.9,118.9 342.3,78.3 334.6,97.6 428.5,191.4 447.7,183.7 407.1,143.1 "/>
<polygon class="st0" points="354.2,275.7 403.6,315.3 413.7,305.2 369.2,260.7 "/>
<polygon class="st0" points="364.4,244.9 355.6,236.1 343.7,240.8 320,264.6 332.3,276.9 "/>
<polygon class="st0" points="299.8,184.6 341.4,226.2 413.9,197.2 328.8,112.1 "/>
<g>
	<path class="st0" d="M214.2,275l2.1,3.6l1.5,2.8c-3.8,2.1-11.6,6.4-19.4,10.8c-21.7,12.2-22.7,13.4-23.3,14.1
		c-1.1,1.3-2,4.2-6,19.8c-1.6,6.4-3.4,13-4.9,18.4c-1.1,3.8-1.9,6.1-2.4,7.6c-2.6-2.7-7-8.1-10.7-12.5c-4.2-5.1-8.5-10.3-12.3-14.5
		c-5.8-6.4-8-7.8-10-7.9l-0.1,0c0,0-0.1,0-0.1,0c-0.5,0-0.9,0.1-1.4,0.3c-3,1.2-4.4,6.7-8.4,27.9c-1,5.6-2.1,11.4-3.1,15.9
		c-0.8,3.5-1.4,5.4-1.8,6.5c-2.6-1.4-7.8-5.3-11.4-8c-9.9-7.4-16.2-11.9-20.1-12.1l-0.1,0c-0.2,0-0.4,0-0.5,0l0,0l-0.1,0
		c-1.7,0.1-4.8,0.3-18.9,17.7c-6.7,8.3-12.7,16.5-13,16.8l-9.7,10.1l11.7-9.5c13.8-10.8,25.6-19.9,28.6-21.2
		c2,0.9,11.6,8.9,15.9,12.2c11.7,9,19.1,14.5,23.3,14.7l0.2,0c0,0,0.1,0,0.1,0l0.1,0c0.4,0,0.7-0.1,1-0.2c4-1.2,5.6-8.5,9-27.6
		c1-5.9,2.5-14.4,3.7-18c0.8,0.7,2,1.9,3.8,3.9c2.7,3.1,6,7.3,9.2,11.3c10.1,12.8,14.6,18.1,18,18.6l0.2,0l0.3,0c0.1,0,0.2,0,0.2,0
		l0.1,0c0.1,0,0.2,0,0.2,0l0.1,0c0.1,0,0.2,0,0.3,0c2.5-0.5,4.7-3.4,8.9-17c2.7-8.8,5.6-19.8,7.9-28.6c1.6-6,2.9-12.7,3.6-14.4
		c2.2-1.9,17-12.7,36.4-23l1.6,1.2l-1.6-1.2l0,0l21.2-21.2l0,0L214.2,275z"/>
	<path class="st0" d="M209.9,275l2.1,3.6l1.5,2.8c-3.8,2.1-11.6,6.4-19.4,10.8c-21.7,12.2-22.7,13.4-23.3,14.1
		c-1.1,1.3-2,4.2-6,19.8c-1.6,6.4-3.4,13-4.9,18.4c-1.1,3.8-1.9,6.1-2.4,7.6c-2.6-2.7-7-8.1-10.7-12.5c-4.2-5.1-8.5-10.3-12.3-14.5
		c-5.8-6.4-8-7.8-10-7.9l-0.1,0c0,0-0.1,0-0.1,0c-0.5,0-0.9,0.1-1.4,0.3c-3,1.2-4.4,6.7-8.4,27.9c-1,5.6-2.1,11.4-3.1,15.9
		c-0.8,3.5-1.4,5.4-1.8,6.5c-2.6-1.4-7.8-5.3-11.4-8c-9.9-7.4-16.2-11.9-20.1-12.1l-0.1,0c-0.2,0-0.4,0-0.5,0l0,0l-0.1,0
		c-1.7,0.1-4.8,0.3-18.9,17.7c-6.7,8.3-12.7,16.5-13,16.8l-11.5,16l15.5-12.1c13.8-10.8,26.8-20.2,29.9-21.6c2,0.9,8.4,5.8,12.7,9.2
		c11.7,9,19.1,14.5,23.3,14.7l0.2,0c0,0,0.1,0,0.1,0l0.1,0c0.4,0,0.7-0.1,1-0.2c4-1.2,5.6-8.5,9-27.6c1-5.9,2.5-14.4,3.7-18
		c0.8,0.7,2,1.9,3.8,3.9c2.7,3.1,6,7.3,9.2,11.3c10.1,12.8,14.6,18.1,18,18.6l0.2,0l0.3,0c0.1,0,0.2,0,0.2,0l0.1,0
		c0.1,0,0.2,0,0.2,0l0.1,0c0.1,0,0.2,0,0.3,0c2.5-0.5,4.7-3.4,8.9-17c2.7-8.8,5.6-19.8,7.9-28.6c1.6-6,3.5-13.5,4.2-15.1
		c2.2-1.9,18-10.7,37.4-21l0,0l0.1-0.1l3.6,6.5l16.7-24l3.5-5L209.9,275z"/>
</g>
</svg>
