<?xml version="1.0" encoding="utf-8"?>
<!-- Generator: Adobe Illustrator 24.0.2, SVG Export Plug-In . SVG Version: 6.00 Build 0)  -->
<svg version="1.1" id="Capa_1" xmlns="http://www.w3.org/2000/svg" xmlns:xlink="http://www.w3.org/1999/xlink" x="0px" y="0px"
	 viewBox="0 0 110 115.7" style="enable-background:new 0 0 110 115.7;" xml:space="preserve">
<style type="text/css">
	.st0{fill-rule:evenodd;clip-rule:evenodd;fill:#EBD776;}
</style>
<g>
	<path class="st0" d="M56.1,82.7l6.8-3.7l-13.6-7.5v15.1L56.1,82.7z M28.6,51.4L28,49.2h-6l-0.7,2.2c-0.1,0.4-0.5,0.8-1,0.8H15
		c-0.3,0-0.5,0.1-0.7,0.3c-0.2,0.2-0.3,0.4-0.3,0.7v13.9c0,0.3,0.1,0.5,0.3,0.7c0.2,0.2,0.4,0.3,0.7,0.3h19.8c0.3,0,0.5-0.1,0.7-0.3
		c0.2-0.2,0.3-0.4,0.3-0.7V53.2c0-0.3-0.1-0.5-0.3-0.7c-0.2-0.2-0.4-0.3-0.7-0.3h-5.2C29.1,52.2,28.7,51.8,28.6,51.4L28.6,51.4z
		 M19.5,50.2l0.7-2.3c0.1-0.4,0.5-0.7,1-0.7h7.6c0.5,0,0.9,0.4,1,0.8l0.6,2.2h4.5c0.8,0,1.6,0.3,2.1,0.9c0.5,0.5,0.9,1.3,0.9,2.1
		v13.9c0,0.8-0.3,1.6-0.9,2.1c-0.5,0.5-1.3,0.9-2.1,0.9H15c-0.8,0-1.6-0.3-2.1-0.9c-0.5-0.5-0.9-1.3-0.9-2.1V53.2
		c0-0.8,0.3-1.6,0.9-2.1c0.5-0.5,1.3-0.9,2.1-0.9L19.5,50.2L19.5,50.2z M80.1,63.2C80.1,63.2,80.1,63.2,80.1,63.2
		c0-0.1,0-0.2-0.1-0.2c-0.2-0.5-0.8-0.9-1.5-1c-0.9-0.2-2.1-0.1-3.2,0.4c-1.1,0.4-2,1.1-2.6,1.9c-0.4,0.6-0.6,1.3-0.4,1.8
		c0,0,0,0.1,0,0.1c0.2,0.5,0.8,0.9,1.5,1c0.9,0.2,2,0.1,3.1-0.3c0,0,0.1,0,0.1,0c1.1-0.4,2-1.1,2.5-1.9
		C80.1,64.3,80.2,63.7,80.1,63.2L80.1,63.2z M27.2,57.8c0.6,0.6,0.9,1.4,0.9,2.3c0,0.9-0.4,1.7-0.9,2.3c-0.6,0.6-1.4,0.9-2.3,0.9
		c-0.9,0-1.7-0.4-2.3-0.9c-0.6-0.6-0.9-1.4-0.9-2.3c0-0.9,0.4-1.7,0.9-2.3c0.6-0.6,1.4-0.9,2.3-0.9C25.8,56.9,26.6,57.3,27.2,57.8z
		 M24.9,54.9c1.4,0,2.8,0.6,3.7,1.5c0.9,0.9,1.5,2.3,1.5,3.7c0,1.4-0.6,2.8-1.5,3.7c-0.9,0.9-2.3,1.5-3.7,1.5
		c-1.4,0-2.8-0.6-3.7-1.5c-0.9-0.9-1.5-2.3-1.5-3.7c0-1.4,0.6-2.8,1.5-3.7C22.1,55.5,23.5,54.9,24.9,54.9z M36.5,42.9v3
		c0,1.6,0.6,3,1.7,4.1c1,1,2.5,1.7,4.1,1.7h0.3v18.8c0,1.1-0.5,2.2-1.2,2.9c-0.8,0.8-1.8,1.2-2.9,1.2H11.5c-1.1,0-2.2-0.5-2.9-1.2
		c-0.8-0.8-1.2-1.8-1.2-2.9V47.1c0-1.1,0.5-2.2,1.2-2.9c0.8-0.8,1.8-1.2,2.9-1.2L36.5,42.9L36.5,42.9z M37.7,76.2h0.7
		c1.6,0,3-0.6,4.1-1.7c1-1,1.7-2.5,1.7-4.1v-4.7c1.3-1,2.8-1.8,4.4-2.3c1.7-0.6,3.4-0.9,5.3-0.9c4.5,0,8.6,1.8,11.5,4.8
		c3,3,4.8,7,4.8,11.5s-1.8,8.6-4.8,11.5c-3,3-7,4.8-11.5,4.8s-8.6-1.8-11.5-4.8c-3-3-4.8-7-4.8-11.5c0-0.6,0-1.1,0.1-1.7
		C37.6,76.9,37.6,76.6,37.7,76.2L37.7,76.2z M91.4,69.7C91.4,69.7,91.4,69.6,91.4,69.7c0-0.1,0-0.1,0-0.2c0,0,0-0.1,0-0.1
		c-0.2-0.5-0.8-0.9-1.5-1c-0.9-0.2-2.1-0.1-3.2,0.4c-1.1,0.4-2,1.1-2.6,1.9c-0.4,0.6-0.6,1.3-0.4,1.8c0.2,0.5,0.8,0.9,1.5,1
		c0.9,0.2,2.1,0.1,3.2-0.4c1.1-0.4,2.1-1.1,2.6-1.9C91.3,70.8,91.5,70.2,91.4,69.7L91.4,69.7z M91.4,59.7c-1.1-1-2.7-2.2-4.4-3.3
		c-1.8-1.2-3.6-2.2-4.9-2.8v9.2c0.2,1-0.1,2.2-0.8,3.2c-0.8,1.1-2,2-3.5,2.6c-1.5,0.6-3.1,0.7-4.3,0.5c-1.4-0.3-2.5-1-3-2.2
		c0,0,0-0.1-0.1-0.1c-0.4-1.2-0.1-2.5,0.7-3.7c0.8-1.1,2-2,3.5-2.6c1.5-0.6,3.1-0.7,4.3-0.5c0.4,0.1,0.8,0.2,1.2,0.4v-12
		c0-0.6,0.5-1,1-1c0.1,0,0.3,0,0.4,0.1c1.1,0.4,4.1,1.7,6.9,3.3c1.8,1,3.5,2.2,4.6,3.4c0.2,0.2,0.4,0.5,0.4,0.8v14.4
		c0.2,1-0.1,2.2-0.8,3.2c-0.8,1.1-2,2-3.5,2.6c-1.5,0.6-3.1,0.7-4.3,0.5c-1.4-0.3-2.5-1-3-2.2c0,0,0-0.1-0.1-0.1
		c-0.4-1.2-0.1-2.5,0.7-3.7c0.8-1.1,2-2,3.5-2.6c1.5-0.6,3.1-0.7,4.3-0.5c0.4,0.1,0.8,0.2,1.2,0.4L91.4,59.7L91.4,59.7z M82.1,51.4
		c1.3,0.6,3.7,1.9,6,3.4c1.1,0.7,2.3,1.5,3.3,2.3v-1.8c-1-0.9-2.4-1.9-4-2.8c-1.9-1.1-3.9-2.1-5.3-2.6L82.1,51.4L82.1,51.4z
		 M71.7,78.3c-0.2-4.7-2.1-9-5.2-12.1c-0.7-0.7-1.5-1.4-2.4-2c0-0.3,0-0.5-0.1-0.8c0-0.4,0-0.7,0-1.1c0-5.6,2.3-10.7,6-14.4
		c1.3-1.3,2.8-2.5,4.5-3.4c2.9-1.6,6.3-2.6,9.9-2.6c5.6,0,10.7,2.3,14.4,6c3.7,3.7,6,8.8,6,14.4s-2.3,10.7-6,14.4
		c-3.7,3.7-8.8,6-14.4,6c-2.4,0-4.7-0.4-6.9-1.2C75.4,80.8,73.4,79.7,71.7,78.3L71.7,78.3z M66.1,50c0.8-1.2,1.7-2.3,2.7-3.3
		c1.3-1.3,2.8-2.5,4.4-3.4V22.4c0-1.1-0.5-2.2-1.2-2.9c-0.8-0.8-1.8-1.2-2.9-1.2H42.2c-1.1,0-2.2,0.5-2.9,1.2
		c-0.8,0.8-1.2,1.8-1.2,2.9v23.4c0,1.1,0.5,2.2,1.2,2.9c0.8,0.8,1.8,1.2,2.9,1.2L66.1,50z M54.7,35.3c-1.1-1.1-2.2-2.4-3.1-3.9
		l0.2-0.1c0.3-0.2,0.7-0.5,0.8-0.6c0.1,0,0.1-0.1,0.1-0.1c0.4-0.4,0.7-0.9,0.7-1.4c0-0.5-0.1-1-0.4-1.6c0,0,0-0.1-0.1-0.1l-3.9-6
		c-0.1-0.2-0.3-0.3-0.5-0.4c-0.5-0.2-1-0.3-1.5-0.3c-0.8,0-1.6,0.2-2.3,0.7c-0.7,0.5-1.3,1.1-1.7,1.9c-0.3,0.6-0.5,1.4-0.5,2.2
		c0,5,2.5,10.7,6.3,14.9c3.5,3.9,8.2,6.7,13.3,6.7c2.3,0,3.8-0.4,4.8-1.3c1.1-0.9,1.5-2.1,1.6-3.7c0-0.3-0.1-0.7-0.4-0.9l-5.6-4.4
		c0,0,0,0-0.1,0c-0.5-0.4-1.1-0.5-1.6-0.5c-0.6,0-1.3,0.3-1.7,0.7c0,0-0.1,0.1-0.1,0.1l-0.8,0.8C57.1,37.4,55.9,36.5,54.7,35.3
		L54.7,35.3z M58.1,40.3c-1.7-0.9-3.3-2.1-4.8-3.6c-1.4-1.4-2.7-3.1-3.9-5.1c-0.3-0.5-0.1-1.1,0.4-1.4l0,0c0.1,0,0.4-0.3,0.8-0.6
		c0.3-0.2,0.6-0.4,0.8-0.6c0,0,0,0,0-0.1c0-0.1,0-0.3-0.1-0.5l-3.7-5.7c-0.2,0-0.3-0.1-0.5-0.1c-0.4,0-0.8,0.1-1.2,0.4
		c-0.4,0.3-0.7,0.6-1,1.1c-0.2,0.4-0.3,0.9-0.3,1.4c0,4.5,2.3,9.7,5.8,13.6c3.2,3.5,7.4,6,11.8,6c1.8,0,2.9-0.3,3.6-0.8
		c0.5-0.4,0.7-1,0.8-1.7l-5.2-4.1c-0.1-0.1-0.2-0.1-0.3-0.1c-0.2,0-0.3,0.1-0.4,0.1l0,0l-1.3,1.4C59,40.5,58.5,40.5,58.1,40.3
		L58.1,40.3z M65.4,79.8L48.7,89c-0.5,0.3-1.1,0.1-1.4-0.4c-0.1-0.2-0.1-0.3-0.1-0.5l0-18.5c0-0.6,0.5-1,1-1c0.2,0,0.4,0.1,0.6,0.2
		L65.4,78c0.5,0.3,0.7,0.9,0.4,1.4C65.7,79.6,65.5,79.7,65.4,79.8L65.4,79.8z"/>
</g>
</svg>
