<?xml version="1.0" encoding="utf-8"?>
<!-- Generator: Adobe Illustrator 24.0.2, SVG Export Plug-In . SVG Version: 6.00 Build 0)  -->
<svg version="1.1" id="Capa_1" xmlns="http://www.w3.org/2000/svg" xmlns:xlink="http://www.w3.org/1999/xlink" x="0px" y="0px"
	 viewBox="0 0 110 117" style="enable-background:new 0 0 110 117;" xml:space="preserve">
<style type="text/css">
	.st0{fill:#EBD776;}
</style>
<path class="st0" d="M94.8,53.8c-3.1,0-5.7,2.3-6.1,5.3h-7.8c-0.2-6.4-2.8-12.3-6.9-16.6l9.9-9.9c1,0.8,2.3,1.2,3.7,1.2
	c3.4,0,6.2-2.8,6.2-6.2s-2.8-6.2-6.2-6.2s-6.2,2.8-6.2,6.2c0,1.4,0.4,2.6,1.2,3.7l-9.9,9.9c-4.4-4.1-10.2-6.7-16.6-6.9v-7.8
	c3-0.5,5.3-3,5.3-6.1c0-3.4-2.8-6.2-6.2-6.2s-6.2,2.8-6.2,6.2c0,3.1,2.3,5.7,5.3,6.1v7.8c-6.4,0.2-12.3,2.8-16.6,6.9l-9.9-9.9
	c0.8-1,1.2-2.3,1.2-3.7c0-3.4-2.8-6.2-6.2-6.2s-6.2,2.8-6.2,6.2s2.8,6.2,6.2,6.2c1.4,0,2.6-0.4,3.7-1.2l9.9,9.9
	c-4.1,4.4-6.7,10.2-6.9,16.6h-7.8c-0.4-3-3-5.3-6.1-5.3C11.8,53.8,9,56.6,9,60s2.8,6.2,6.2,6.2c3.1,0,5.7-2.3,6.1-5.3h7.8
	c0.2,6.4,2.8,12.3,6.9,16.6l-9.9,9.9c-1-0.8-2.3-1.2-3.7-1.2c-3.4,0-6.2,2.8-6.2,6.2s2.8,6.2,6.2,6.2s6.2-2.8,6.2-6.2
	c0-1.4-0.4-2.6-1.2-3.7l9.9-9.9c4.4,4.1,10.2,6.7,16.6,6.9v7.8c-3,0.4-5.3,3-5.3,6.1c0,3.4,2.8,6.2,6.2,6.2s6.2-2.8,6.2-6.2
	c0-3.1-2.3-5.7-5.3-6.1v-7.8c6.4-0.2,12.3-2.8,16.6-6.9l9.9,9.9c-0.8,1-1.2,2.3-1.2,3.7c0,3.4,2.8,6.2,6.2,6.2s6.2-2.8,6.2-6.2
	s-2.8-6.2-6.2-6.2c-1.4,0-2.6,0.4-3.7,1.2l-9.9-9.9c4.1-4.4,6.7-10.2,6.9-16.6h7.8c0.4,3,3,5.3,6.1,5.3c3.4,0,6.2-2.8,6.2-6.2
	C101,56.6,98.2,53.8,94.8,53.8L94.8,53.8z M15.2,64.3c-2.4,0-4.3-1.9-4.3-4.3s1.9-4.3,4.3-4.3s4.3,1.9,4.3,4.3S17.6,64.3,15.2,64.3z
	 M87.5,23.2c2.4,0,4.3,1.9,4.3,4.3s-1.9,4.3-4.3,4.3s-4.3-1.9-4.3-4.3S85.1,23.2,87.5,23.2z M50.7,20.2c0-2.4,1.9-4.3,4.3-4.3
	s4.3,1.9,4.3,4.3s-1.9,4.3-4.3,4.3S50.7,22.6,50.7,20.2z M22.5,31.9c-2.4,0-4.3-1.9-4.3-4.3s1.9-4.3,4.3-4.3s4.3,1.9,4.3,4.3
	S24.9,31.9,22.5,31.9z M22.5,96.8c-2.4,0-4.3-1.9-4.3-4.3s1.9-4.3,4.3-4.3s4.3,1.9,4.3,4.3S24.9,96.8,22.5,96.8z M59.3,99.8
	c0,2.4-1.9,4.3-4.3,4.3s-4.3-1.9-4.3-4.3s1.9-4.3,4.3-4.3S59.3,97.4,59.3,99.8z M87.5,88.1c2.4,0,4.3,1.9,4.3,4.3s-1.9,4.3-4.3,4.3
	s-4.3-1.9-4.3-4.3S85.1,88.1,87.5,88.1z M55,84c-13.2,0-24-10.8-24-24s10.7-24,24-24s24,10.8,24,24S68.2,84,55,84z M94.8,64.3
	c-2.4,0-4.3-1.9-4.3-4.3s1.9-4.3,4.3-4.3s4.3,1.9,4.3,4.3S97.2,64.3,94.8,64.3z M70,51.9c-0.8-0.4-1.6-0.6-2.5-0.6l-1.8-6.5
	c-0.4-1.6-2-2.5-3.6-2.1c-0.8,0.2-1.4,0.7-1.8,1.4c-0.4,0.7-0.5,1.4-0.3,2.1c-2.7,4-6.2,6.8-11.5,9.2c-0.2-0.2-0.4-0.4-0.6-0.5
	c-0.5-0.3-1.1-0.4-1.7-0.2l-5.7,1.5c-0.6,0.2-1.1,0.5-1.4,1.1c-0.2,0.3-0.3,0.7-0.3,1l-0.5,0.1c-1.6,0.4-2.6,2.1-2.2,3.8l1.1,4
	c0.2,0.8,0.7,1.5,1.4,1.9c0.5,0.3,1,0.4,1.5,0.4c0.3,0,0.5,0,0.8-0.1l0.5-0.1c0.2,0.3,0.4,0.6,0.8,0.7c0.4,0.2,0.7,0.3,1.1,0.3
	c0.2,0,0.4,0,0.6-0.1l0.2,0l4.7,8.1c0.3,0.6,0.8,0.9,1.4,1.1c0.2,0.1,0.4,0.1,0.6,0.1c0.4,0,0.8-0.1,1.2-0.3l0.9-0.5
	c1.1-0.6,1.5-2.1,0.9-3.2l-3.9-6.8c0.5-0.2,0.9-0.5,1.2-1c0.1-0.2,0.2-0.5,0.3-0.7c5.8-0.6,10.3,0.1,14.6,2.2
	c0.4,1.3,1.5,2.1,2.8,2.1c0.3,0,0.5,0,0.8-0.1c1.6-0.4,2.5-2,2.1-3.6l-1.8-6.5c1.9-0.9,2.9-3.1,2.3-5.2C71.8,53.5,71,52.5,70,51.9
	L70,51.9z M39.6,66.4c-0.3-0.2-0.5-0.4-0.6-0.7l-1.1-4c-0.2-0.6,0.2-1.3,0.9-1.5l0.4-0.1l1.7,6.3l-0.4,0.1
	C40.2,66.6,39.9,66.5,39.6,66.4L39.6,66.4z M43.2,67.3c-0.1,0-0.1-0.1-0.2-0.2l-2.3-8.6c0-0.1,0-0.3,0-0.3c0-0.1,0.1-0.1,0.2-0.2
	l5.7-1.5c0,0,0.1,0,0.1,0c0.1,0,0.2,0,0.2,0.1c0.1,0,0.1,0.1,0.2,0.2l2.3,8.6c0,0.1,0,0.3,0,0.3c0,0.1-0.1,0.1-0.2,0.2l-5.7,1.5
	C43.4,67.4,43.3,67.3,43.2,67.3z M52,76l-0.9,0.5c-0.1,0.1-0.3,0.1-0.4,0.1c-0.1,0-0.2-0.1-0.3-0.2L46,68.6l2-0.5l4.2,7.2
	C52.4,75.6,52.3,75.9,52,76L52,76z M51.1,64l-1.8-6.9c5.1-2.3,8.7-4.9,11.5-8.6l4.6,17.1C61.1,63.9,56.6,63.4,51.1,64L51.1,64z
	 M69,68.2c-0.6,0.1-1.1-0.2-1.3-0.7l-5.8-21.7c-0.1-0.3,0-0.6,0.1-0.8c0.1-0.2,0.4-0.4,0.6-0.5c0.1,0,0.2,0,0.3,0
	c0.5,0,0.9,0.3,1,0.8l5.8,21.7C69.9,67.5,69.5,68.1,69,68.2L69,68.2z M69.3,58L68,53.2c1.1,0.1,2,0.9,2.3,2
	C70.6,56.3,70.1,57.4,69.3,58z"/>
</svg>
