<?xml version="1.0" encoding="utf-8"?>
<!-- Generator: Adobe Illustrator 24.0.2, SVG Export Plug-In . SVG Version: 6.00 Build 0)  -->
<svg version="1.1" id="Capa_1" xmlns="http://www.w3.org/2000/svg" xmlns:xlink="http://www.w3.org/1999/xlink" x="0px" y="0px"
	 viewBox="0 0 110 119" style="enable-background:new 0 0 110 119;" xml:space="preserve">
<style type="text/css">
	.st0{fill:#EBD776;}
</style>
<path class="st0" d="M53.2,10c-2.6,0-4.6,2.1-4.6,4.6v26.3H13.7c-2.5,0-4.6,2.1-4.6,4.6v33.9c0,2.5,2.1,4.6,4.6,4.6h4.5v5.2
	c0,1,0.6,1.8,1.4,2.2c0.8,0.3,1.8,0.2,2.5-0.5L29,84h22.8v16.7c0,2,1.7,3.7,3.7,3.7h20.4l5.1,5.1c0.6,0.6,1.5,0.7,2.2,0.4
	s1.2-1,1.2-1.8v-3.6h3.1c2,0,3.7-1.7,3.7-3.7V75.3c0-2-1.7-3.7-3.7-3.7H61V53.4h19.8l6.9,6.9l0,0h0c0.7,0.7,1.8,0.8,2.6,0.5
	c0.8-0.3,1.5-1.2,1.5-2.2v-5.3h4.5c2.6,0,4.6-2.1,4.6-4.6l0-34.2c0-2.6-2.1-4.6-4.6-4.6L53.2,10z M53.2,12h43.1
	c1.5,0,2.7,1.2,2.7,2.7v34.2c0,1.5-1.2,2.7-2.7,2.7h-5.5c-0.5,0-1,0.4-1,1v6.2c0,0.2-0.1,0.3-0.3,0.4s-0.3,0.1-0.4-0.1l-7.2-7.2h0
	c-0.2-0.2-0.4-0.3-0.7-0.3H61v-5.9c0-2.5-2.1-4.6-4.6-4.6h-5.9l0-26.3C50.5,13.1,51.7,12,53.2,12L53.2,12z M80.7,19.2
	c-2.1,0-4.2,0.8-5.8,2.4l-0.1,0.1l-0.1-0.1c-3.2-3.2-8.5-3.2-11.7,0c-3.2,3.2-3.2,8.4,0,11.6l0.8,0.8l8.9,8.9c1.1,1.1,3,1.1,4.1,0
	l8.9-8.9l0.8-0.8c3.2-3.2,3.2-8.4,0-11.6C84.9,20,82.8,19.2,80.7,19.2L80.7,19.2z M68.8,21.1c1.6,0,3.2,0.6,4.5,1.9l0.8,0.8v0
	c0.4,0.4,1,0.4,1.4,0l0.8-0.8c1.2-1.2,2.8-1.8,4.5-1.8s3.2,0.6,4.5,1.8c2.5,2.5,2.5,6.4,0,8.9l-0.8,0.8l-8.9,8.9
	c-0.4,0.4-1,0.4-1.4,0l-8.9-8.9l-0.8-0.8c-2.5-2.5-2.5-6.4,0-8.9C65.6,21.8,67.2,21.1,68.8,21.1L68.8,21.1z M13.7,42.9h42.7
	c1.5,0,2.7,1.2,2.7,2.6v26.1h-3.5c-2,0-3.7,1.7-3.7,3.7V82l-23.2,0c-0.3,0-0.5,0.1-0.7,0.3l-7.2,7.1c-0.2,0.2-0.3,0.1-0.4,0.1
	c-0.1-0.1-0.2-0.1-0.2-0.4V83v0c0-0.5-0.4-1-1-1h-5.4c-1.5,0-2.7-1.2-2.7-2.6V45.5C11,44.1,12.2,42.9,13.7,42.9L13.7,42.9z
	 M34.3,46.8c-1.2,0-2.3,0.7-2.8,1.8l-3.9,8.4h-5.8c-1.3,0-2.3,1-2.3,2.3v15c0,1.3,1,2.3,2.3,2.3h21.9c2.1,0,3.9-1.4,4.3-3.4L50.9,61
	c0.5-2-1.1-4.1-3.2-4.1h-9.4v-7.5c0-1.5-1.2-2.7-2.7-2.7L34.3,46.8z M34.3,48.7h1.2c0.4,0,0.7,0.3,0.7,0.7v8.5v0c0,0.5,0.4,1,1,1
	h10.4c0.9,0,1.5,0.8,1.3,1.6l-2.9,12.1c-0.3,1.1-1.3,1.9-2.4,1.9H29.2V58.1l4.1-8.8C33.5,49,33.9,48.7,34.3,48.7L34.3,48.7z
	 M21.8,58.9h5.5v15.7h-5.5c-0.2,0-0.3-0.1-0.3-0.3v-15C21.5,59,21.6,58.9,21.8,58.9L21.8,58.9z M55.5,73.6h32c1,0,1.7,0.8,1.7,1.7
	v25.3c0,1-0.8,1.7-1.7,1.7h-4.1l0,0c-0.3,0-0.5,0.1-0.7,0.3c-0.2,0.2-0.3,0.4-0.3,0.7v4.6c0,0.1,0,0,0,0c0,0,0,0,0,0l-5.4-5.4h0
	c-0.2-0.2-0.4-0.3-0.7-0.3H55.5c-1,0-1.7-0.8-1.7-1.7V75.3C53.8,74.3,54.5,73.6,55.5,73.6L55.5,73.6z M68.3,80
	c-0.3,0-0.5,0.1-0.7,0.3c-0.2,0.2-0.3,0.4-0.3,0.7v2.8h-2.9c-0.5,0-1,0.4-1,1s0.4,1,1,1h2.8v4.4h-2.8c-0.5,0-1,0.4-1,1s0.4,1,1,1
	h2.8V95h0c0,0.3,0.1,0.5,0.3,0.7c0.2,0.2,0.4,0.3,0.7,0.3c0.3,0,0.5-0.1,0.7-0.3c0.2-0.2,0.3-0.4,0.3-0.7v-2.8h4.4V95
	c0,0.3,0.1,0.5,0.3,0.7s0.4,0.3,0.7,0.3c0.3,0,0.5-0.1,0.7-0.3s0.3-0.4,0.3-0.7v-2.8h2.8c0.5,0,1-0.4,1-1s-0.4-1-1-1h-2.8v-4.4h2.8
	c0.5,0,1-0.4,1-1s-0.4-1-1-1h-2.8V81c0-0.3-0.1-0.5-0.3-0.7S75,80,74.7,80c-0.3,0-0.5,0.1-0.7,0.3s-0.3,0.4-0.3,0.7v2.8h-4.4V81
	c0-0.3-0.1-0.5-0.3-0.7S68.6,80,68.3,80z M69.3,85.8h4.4v4.4h-4.4V85.8z"/>
</svg>
