<?xml version="1.0" encoding="utf-8"?>
<!-- Generator: Adobe Illustrator 24.0.2, SVG Export Plug-In . SVG Version: 6.00 Build 0)  -->
<svg version="1.1" id="Capa_1" xmlns="http://www.w3.org/2000/svg" xmlns:xlink="http://www.w3.org/1999/xlink" x="0px" y="0px"
	 viewBox="0 0 110 121.1" style="enable-background:new 0 0 110 121.1;" xml:space="preserve">
<style type="text/css">
	.st0{fill-rule:evenodd;clip-rule:evenodd;fill:#EBD776;}
</style>
<path class="st0" d="M25.9,49.1c0.4-0.4,1-0.4,1.4,0c0.4,0.4,0.4,1,0,1.4l-5.4,5.4l5.4,5.4c0.4,0.4,0.4,1,0,1.4
	c-0.4,0.4-1,0.4-1.4,0l-6.1-6.1c-0.4-0.4-0.4-1,0-1.4L25.9,49.1z M36.9,36.8c1.1,0,2-0.9,2-2c0-1.1-0.9-2-2-2c-1.1,0-2,0.9-2,2
	C34.9,36,35.8,36.8,36.9,36.8z M27.5,36.8c1.1,0,2-0.9,2-2c0-1.1-0.9-2-2-2c-1.1,0-2,0.9-2,2C25.5,36,26.4,36.8,27.5,36.8z
	 M18.5,36.8c1.1,0,2-0.9,2-2c0-1.1-0.9-2-2-2c-1.1,0-2,0.9-2,2C16.5,36,17.4,36.8,18.5,36.8z M20.5,86.5c-0.5,0-1-0.4-1-1s0.4-1,1-1
	H41c0.5,0,1,0.4,1,1s-0.4,1-1,1H20.5z M20.5,79.2c-0.5,0-1-0.4-1-1s0.4-1,1-1h25c0.5,0,1,0.4,1,1s-0.4,1-1,1H20.5z M20.5,72
	c-0.5,0-1-0.4-1-1c0-0.5,0.4-1,1-1h16.3c0.5,0,1,0.4,1,1c0,0.5-0.4,1-1,1H20.5z M64,83l7.6-2.8c-0.4-1.2-1.1-2.1-1.9-2.9
	c-0.8-0.8-1.8-1.4-2.9-1.9L64,83z M73.1,81.6l-10.3,3.8c-0.2,0.1-0.4,0.1-0.7,0c-0.5-0.2-0.7-0.7-0.6-1.2l3.8-10.3
	c0-0.2,0.1-0.3,0.2-0.4L87.1,52l0-9.2H10v45.6c0,1.1,0.4,2,1.1,2.8c0.7,0.7,1.7,1.1,2.8,1.1h69.3c1.1,0,2-0.4,2.8-1.1
	c0.7-0.7,1.1-1.7,1.1-2.8V67.8L73.5,81.4C73.4,81.5,73.2,81.6,73.1,81.6L73.1,81.6z M68,73.8l26.6-26.6c1.3,0.4,2.4,1.1,3.2,2
	c0.9,0.9,1.5,2,2,3.2L87.4,64.8L73.2,79c-0.5-1.2-1.2-2.2-2.1-3.1C70.3,75,69.2,74.3,68,73.8L68,73.8z M89,50.1V32.8
	c0-1.6-0.7-3.1-1.7-4.1c-1.1-1.1-2.5-1.7-4.1-1.7l-69.3,0c-1.6,0-3.1,0.7-4.1,1.7c-1.1,1.1-1.7,2.5-1.7,4.1v55.5
	c0,1.6,0.7,3.1,1.7,4.1c1.1,1.1,2.5,1.7,4.1,1.7h69.3c1.6,0,3.1-0.7,4.1-1.7c1.1-1.1,1.7-2.5,1.7-4.1V65.9l12.6-12.6
	c0.2-0.2,0.3-0.6,0.2-0.9c-0.6-1.8-1.4-3.4-2.6-4.6c-1.2-1.2-2.7-2.1-4.5-2.6c-0.3-0.1-0.7,0-1,0.2L89,50.1z M10,40.8v-8
	c0-1.1,0.4-2,1.1-2.8c0.7-0.7,1.7-1.1,2.8-1.1h69.3c1.1,0,2,0.4,2.8,1.1s1.1,1.7,1.1,2.8v8H10z M55.7,60.7c-0.5,0-1-0.4-1-1
	s0.4-1,1-1h15.1c0.5,0,1,0.4,1,1s-0.4,1-1,1H55.7z M55.7,52.9c-0.5,0-1-0.4-1-1s0.4-1,1-1h18.4c0.5,0,1,0.4,1,1s-0.4,1-1,1H55.7z
	 M35.5,50.5c-0.4-0.4-0.4-1,0-1.4c0.4-0.4,1-0.4,1.4,0l6.1,6.1c0.4,0.4,0.4,1,0,1.4l-6.1,6.1c-0.4,0.4-1,0.4-1.4,0
	c-0.4-0.4-0.4-1,0-1.4l5.4-5.4L35.5,50.5z"/>
</svg>
