<svg id="Capa_1" data-name="Capa 1" xmlns="http://www.w3.org/2000/svg" viewBox="0 0 868.94 291.39"><defs><style>.cls-1{fill:#213343;}.cls-2{fill:#fff;stroke:#191927;stroke-miterlimit:10;}.cls-3{fill:#6122b2;}</style></defs><title>logo-gowup</title><path class="cls-1" d="M184.51,170.1,183,183.88q-1.84,21.28-12.61,37.66a72.73,72.73,0,0,1-28.3,25.29q-17.52,8.89-39.63,8.91-21.75,0-38.24-9a63.66,63.66,0,0,1-25.63-25.52Q29.44,204.71,29.44,183q0-24.18,10.82-43.63a79.33,79.33,0,0,1,30-30.55q19.15-11.1,43.34-11.1A83.15,83.15,0,0,1,147,104.15a64,64,0,0,1,24.65,18.45,60.63,60.63,0,0,1,12.61,27.6H154.88a37.44,37.44,0,0,0-15.79-19.61q-11.52-7.35-26.68-7.35a52.47,52.47,0,0,0-27.6,7.35A51.89,51.89,0,0,0,65.61,151q-7,13-7,29.8,0,22.56,12.33,35.82t32.92,13.24q18,0,31.19-10.06a42.18,42.18,0,0,0,16.25-26.39H103.85l3.36-23.26Z" transform="translate(-29.44 -38.18)"/><path class="cls-1" d="M220.31,172.42a55.54,55.54,0,0,1,21.81-21.24A63.43,63.43,0,0,1,273,143.61q16.1,0,28.18,6.65a46.26,46.26,0,0,1,18.63,18.57q6.54,11.92,6.54,27.43a59.88,59.88,0,0,1-7.93,30.66,55.47,55.47,0,0,1-21.81,21.24,63.93,63.93,0,0,1-31.13,7.58q-16.08,0-28.12-6.66a45.74,45.74,0,0,1-18.51-18.63q-6.48-12-6.48-27.37A59.88,59.88,0,0,1,220.31,172.42ZM246.8,224q7.47,8.28,20.08,8.28,14,0,23.2-9.84t9.2-25.23q0-13.53-7.46-21.93t-20-8.39a30.4,30.4,0,0,0-23.26,10q-9.25,9.94-9.26,25.34Q239.34,215.69,246.8,224Z" transform="translate(-29.44 -38.18)"/><path class="cls-1" d="M748.89,147l-14.7,105.65h-22.1l-.23-13.31a41.4,41.4,0,0,1-15.62,12.39,47.68,47.68,0,0,1-19.67,4.05q-16.32,0-25.23-8.8t-8.91-24.18a52.7,52.7,0,0,1,.7-8.57L652.38,147H679l-8.8,62.72c-.31,2.86-.46,4.74-.46,5.67q0,9.26,4.74,13.19t13.66,3.94a23.59,23.59,0,0,0,17.07-6.66q6.88-6.65,8.62-18L722.28,147Z" transform="translate(-29.44 -38.18)"/><path class="cls-1" d="M875.76,150.37a44,44,0,0,1,16.72,18.23q5.91,11.68,5.9,27.08,0,17.59-7.46,31.36a53.8,53.8,0,0,1-20.48,21.35A55.94,55.94,0,0,1,841.8,256a49.61,49.61,0,0,1-21.24-4.63A38.41,38.41,0,0,1,805,238.61l-8.8,62.6H769.71L791.23,147H813.1v13.66a39.35,39.35,0,0,1,16-12.33,53.7,53.7,0,0,1,22-4.45A46.9,46.9,0,0,1,875.76,150.37Zm-14.18,72.27Q871,213,871,198.11q0-13.77-8-22.05t-20.48-8.27a30.69,30.69,0,0,0-23,9.6q-9.26,9.62-9.25,24.54,0,13.77,7.81,22t20.42,8.28A31.05,31.05,0,0,0,861.58,222.64Z" transform="translate(-29.44 -38.18)"/><path class="cls-2" d="M684,45.94l4.81,8.41,3.53,6.36c-8.71,4.81-26.69,14.75-44.66,24.89-50,28.19-52.28,30.91-53.66,32.53-2.49,2.92-4.56,9.74-13.83,45.6-3.8,14.73-7.73,30-11.38,42.53-2.55,8.78-4.37,14.17-5.64,17.46-5.94-6.23-16.18-18.65-24.65-28.94-9.67-11.73-19.66-23.86-28.28-33.38-13.28-14.67-18.56-17.92-23-18.22l-.3,0h-.23a9,9,0,0,0-3.14.58c-7,2.81-10.18,15.45-19.31,64.27-2.41,12.91-4.91,26.25-7.25,36.56A127.26,127.26,0,0,1,453,259.49c-5.92-3.23-17.95-12.22-26.26-18.42-22.9-17.1-37.46-27.52-46.37-28l-.27,0a10.72,10.72,0,0,0-1.15,0h-.17c-3.88.27-11.12.75-43.65,40.72-15.54,19.09-29.36,38-29.94,38.78l-22.3,23.24,27-22c31.8-24.92,59-45.86,66-49,4.57,2.08,26.78,20.48,36.77,28.16,27,20.73,44.13,33.43,53.71,33.92h1.19a10.12,10.12,0,0,0,2.39-.4c9.21-2.78,13-19.68,20.75-63.7,2.38-13.58,5.84-33.24,8.58-41.46a100,100,0,0,1,8.7,9.07c6.26,7.16,13.83,16.75,21.15,26,23.23,29.43,33.57,41.63,41.52,42.81l.4.1h1.32l.52,0,.15,0c.21,0,.43-.06.67-.1,5.82-1.19,10.83-7.78,20.64-39.17,6.32-20.19,13-45.62,18.3-66.07,3.65-13.94,6.73-29.34,8.24-33.09,5.19-4.28,39.24-29.23,84-53l3.74,2.75-3.74-2.75h0l49-49h0Z" transform="translate(-29.44 -38.18)"/><path class="cls-3" d="M674,45.94l4.81,8.41,3.53,6.36c-8.71,4.81-26.69,14.75-44.66,24.89-50,28.19-52.28,30.91-53.66,32.53-2.49,2.92-4.56,9.74-13.83,45.6-3.8,14.73-7.73,30-11.38,42.53-2.55,8.78-4.37,14.17-5.64,17.46-5.94-6.23-16.18-18.65-24.65-28.94-9.67-11.73-19.66-23.86-28.28-33.38-13.28-14.67-18.56-17.92-23-18.22l-.3,0h-.23a9,9,0,0,0-3.14.58c-7,2.81-10.18,15.45-19.31,64.27-2.41,12.91-4.91,26.25-7.25,36.56A127.26,127.26,0,0,1,443,259.49c-5.92-3.23-17.95-12.22-26.26-18.42-22.9-17.1-37.46-27.52-46.37-28l-.27,0a10.72,10.72,0,0,0-1.15,0h-.17c-3.88.27-11.12.75-43.65,40.72-15.54,19.09-29.36,38-29.94,38.78l-26.42,37,35.69-28c31.8-24.92,61.86-46.62,68.85-49.77,4.56,2.09,19.36,13.47,29.35,21.15,27,20.73,44.13,33.43,53.71,33.92h1.19a10.12,10.12,0,0,0,2.39-.4c9.21-2.78,13-19.68,20.75-63.7,2.38-13.58,5.84-33.24,8.58-41.46a100,100,0,0,1,8.7,9.07c6.26,7.16,13.83,16.75,21.15,26,23.23,29.43,33.57,41.63,41.52,42.81l.4.1h1.32l.52,0,.15,0c.21,0,.43-.06.67-.1,5.82-1.19,10.83-7.78,20.64-39.17,6.32-20.19,13-45.62,18.3-66.07,3.65-13.94,8.14-31.15,9.66-34.91,5.19-4.28,41.54-24.7,86.3-48.47l0,0,.27-.15,8.37,15.06,38.51-55.36,8.06-11.54Z" transform="translate(-29.44 -38.18)"/></svg>